<?xml version="1.0" encoding="UTF-8" standalone="no"?>
<!-- Created with Inkscape (http://www.inkscape.org/) -->

<svg
   width="210mm"
   height="88.768951mm"
   viewBox="0 0 210 88.768951"
   version="1.1"
   id="svg1"
   xml:space="preserve"
   xmlns="http://www.w3.org/2000/svg"
   xmlns:svg="http://www.w3.org/2000/svg"><defs
     id="defs1" /><g
     id="layer1"><g
       id="layer1-5"
       transform="translate(0.08952283,84.559684)"><path
         id="path4"
         style="fill:#288f68;fill-opacity:1;stroke-width:7.21483;stroke-dasharray:none"
         d="m 98.604856,-84.558616 c -2.30027,-0.01699 -4.61389,0.168438 -6.89634,0.566067 -5.6e-4,1.1e-5 -0.001,6.08e-4 -0.002,6.86e-4 -5.2e-4,9.2e-5 -10e-4,-9e-5 -0.002,0 0.002,-5.33e-4 0.004,-0.0019 0.004,-0.0021 -0.002,7.4e-5 -0.0103,0.0015 -0.0185,0.0028 -0.005,7.17e-4 -0.007,0.0016 -0.01,0.0021 0.007,-8.08e-4 0.0143,-0.002 0.0211,-0.0027 -0.003,6.15e-4 -0.006,0.0018 -0.0105,0.0027 v 6.89e-4 c 0.0118,-0.0021 0.0171,-0.003 0.0179,-0.0035 11.732804,-1.836894 25.791314,8.44642 30.243104,18.048808 3.93062,8.47876 -0.16004,19.207565 -10.45736,22.243756 -3.41287,1.006168 -7.46208,0.845336 -10.73106,-0.367977 -3.269624,-1.213014 -5.544394,-3.312348 -6.575734,-6.393877 -0.49916,-1.515642 -0.11556,-5.176831 0.93653,-7.351993 0.72349,-1.496613 4.65342,-6.688692 6.743424,-7.378133 -4.346244,0.263741 -9.001304,4.719718 -10.724194,7.486805 -1.76619,2.836814 -2.12428,7.12769 -0.9745,10.057149 1.6009,4.079005 3.79442,6.321929 7.98791,8.693911 2.265954,1.282194 4.859364,1.78988 7.517544,1.787618 2.65817,-0.0022 5.38227,-0.510909 7.9009,-1.253877 14.16117,-4.174957 19.60146,-18.363507 14.39911,-29.585435 -4.83758,-10.435045 -16.91727,-16.461559 -29.370274,-16.553509 z m 3.263614,19.367339 c 1.5e-4,-5.2e-5 9.1e-4,4.8e-5 0.001,0 0.005,3.55e-4 1.9e-4,0.002 0.008,0.002 l -0.001,-0.0035 0.002,-0.0014 c -0.002,1.6e-4 -2.8e-4,-1.73e-4 -0.002,0 v -6.89e-4 c -0.0263,2.7e-4 -0.0325,-7.54e-4 -0.0295,-0.0014 -0.004,0.0028 0.01,0.0038 0.0221,0.0048 z m -0.0221,-0.0048 c 0.005,-8.27e-4 0.0225,-0.0016 0.0385,-0.002 0.088,-0.02631 -0.0225,-0.0091 -0.0385,0.002 z m 0.0385,-0.002 c -0.003,8.2e-4 -5.5e-4,4.68e-4 -0.004,0.0014 l -0.003,0.0028 c 0.0394,-0.0039 0.0274,-0.0048 0.007,-0.0041 z m -2.204754,-12.412338 c -9.91995,-0.141854 -18.17722,7.919708 -19.54632,17.392638 -1.66638,11.529741 6.18706,22.150752 17.07159,25.658042 l -5.3e-4,-0.0048 c -8.63998,-2.952286 -13.44943,-16.016195 -12.15482,-24.974325 1.1415,-7.89772 8.61211,-14.513817 16.803184,-12.979652 2.71497,0.508346 5.3336,2.135895 6.96965,4.274736 1.63935,2.138764 2.11595,4.415926 1.54401,7.301097 -0.037,-0.0115 -0.17125,3.338049 -3.21932,5.958493 -1.14394,0.983402 -5.93659,3.953401 -7.232254,3.248522 l -0.0111,0.02063 c 2.972414,1.616885 7.813414,0.110875 10.244334,-1.383185 2.43099,-1.494057 4.25142,-3.832006 5.02593,-6.471597 1.24235,-4.237225 0.0594,-8.432808 -2.34871,-11.580648 -2.40823,-3.147833 -6.01236,-5.3949 -10.01969,-6.144886 -1.056,-0.197774 -2.09977,-0.300343 -3.125974,-0.315016 z" /><g
         id="g11"
         transform="matrix(1.8546322,0,0,1.5189522,-2.8158342,-26.488753)"><g
           id="logogram"
           transform="translate(0,10.5)" /><g
           id="logotype"
           transform="translate(0,1)"><path
             fill="#288f68"
             d="m 11.55,16.27 q 3.33,0 5.36,-2.24 v 0 l 1.82,2.17 q -1.23,1.47 -3.1,2.24 -1.87,0.77 -4.18,0.77 v 0 Q 8.51,19.21 6.23,18 3.96,16.8 2.71,14.63 1.47,12.45 1.47,9.72 v 0 Q 1.47,7.03 2.68,4.86 3.89,2.69 6,1.48 8.12,0.27 10.78,0.27 v 0 q 2.52,0 4.59,1.14 2.06,1.14 3.29,3.2 1.22,2.07 1.26,4.76 v 0 L 5.18,12.24 q 0.7,1.93 2.36,2.98 1.67,1.05 4.01,1.05 z M 10.78,3.11 Q 9.03,3.11 7.65,3.91 6.27,4.72 5.5,6.17 4.73,7.62 4.73,9.55 v 0 0.35 L 16.59,7.66 Q 16.14,5.63 14.56,4.37 12.99,3.11 10.78,3.11 Z m 21.14,16.1 q -2.83,0 -5.06,-1.23 -2.22,-1.22 -3.48,-3.37 -1.26,-2.16 -1.26,-4.89 v 0 q 0,-2.73 1.26,-4.88 1.26,-2.15 3.48,-3.36 2.23,-1.21 5.06,-1.21 v 0 q 2.52,0 4.5,1.02 1.98,1.01 3.06,2.94 v 0 L 36.93,5.87 Q 36.05,4.54 34.76,3.88 33.46,3.21 31.89,3.21 v 0 q -1.82,0 -3.28,0.81 -1.45,0.8 -2.27,2.29 -0.82,1.49 -0.82,3.41 v 0 q 0,1.96 0.82,3.45 0.82,1.49 2.27,2.29 1.46,0.81 3.28,0.81 v 0 q 1.57,0 2.87,-0.66 1.29,-0.67 2.17,-2 v 0 l 2.55,1.61 q -1.08,1.92 -3.06,2.96 -1.98,1.03 -4.5,1.03 z m 19.22,-2.94 q 3.32,0 5.35,-2.24 v 0 l 1.82,2.17 q -1.22,1.47 -3.1,2.24 -1.87,0.77 -4.18,0.77 v 0 Q 48.09,19.21 45.81,18 43.54,16.8 42.3,14.63 41.05,12.45 41.05,9.72 v 0 q 0,-2.69 1.21,-4.86 1.21,-2.17 3.33,-3.38 2.11,-1.21 4.78,-1.21 v 0 q 2.52,0 4.58,1.14 2.07,1.14 3.29,3.2 1.23,2.07 1.26,4.76 v 0 l -14.73,2.87 q 0.7,1.93 2.36,2.98 1.66,1.05 4.01,1.05 z M 50.37,3.11 q -1.75,0 -3.14,0.8 -1.38,0.81 -2.15,2.26 -0.77,1.45 -0.77,3.38 v 0 0.35 L 56.17,7.66 Q 55.72,5.63 54.15,4.37 52.57,3.11 50.37,3.11 Z M 88.34,0.45 h 3.36 v 10.26 q 0,4.09 -2.03,6.29 -2.03,2.21 -5.88,2.21 v 0 q -4.55,0 -6.3,-3.33 v 0 q -0.91,1.69 -2.47,2.51 -1.55,0.82 -3.86,0.82 v 0 q -3.89,0 -5.9,-2.21 -2.02,-2.2 -2.02,-6.29 v 0 -10.26 h 3.37 v 9.94 q 0,2.97 1.08,4.39 1.09,1.42 3.47,1.42 v 0 q 2.37,0 3.51,-1.43 1.14,-1.44 1.14,-4.38 v 0 -9.94 h 3.36 v 9.94 q 0,2.94 1.14,4.38 1.13,1.43 3.52,1.43 v 0 q 2.34,0 3.42,-1.42 1.09,-1.42 1.09,-4.39 v 0 z m 16.73,18.76 q -2.76,0 -4.97,-1.23 -2.2,-1.22 -3.45,-3.37 -1.24,-2.16 -1.24,-4.89 v 0 q 0,-2.73 1.24,-4.88 1.25,-2.15 3.45,-3.36 2.21,-1.21 4.97,-1.21 v 0 q 2.77,0 4.95,1.21 2.19,1.21 3.43,3.36 1.25,2.15 1.25,4.88 v 0 q 0,2.73 -1.25,4.89 -1.24,2.15 -3.43,3.37 -2.18,1.23 -4.95,1.23 z m 0,-2.94 q 1.79,0 3.2,-0.82 1.42,-0.82 2.23,-2.31 0.8,-1.49 0.8,-3.42 v 0 q 0,-1.92 -0.8,-3.41 -0.81,-1.49 -2.23,-2.29 -1.41,-0.81 -3.2,-0.81 v 0 q -1.78,0 -3.2,0.81 -1.42,0.8 -2.24,2.29 -0.82,1.49 -0.82,3.41 v 0 q 0,1.93 0.82,3.42 0.82,1.49 2.24,2.31 1.42,0.82 3.2,0.82 z"
             id="path1" /></g></g></g></g></svg>
