<?xml version="1.0" encoding="UTF-8" standalone="no"?>
<!-- Created with Inkscape (http://www.inkscape.org/) -->

<svg
   width="50.000015mm"
   height="49.99995mm"
   viewBox="0 0 50.000015 49.99995"
   version="1.1"
   id="svg1"
   xml:space="preserve"
   xmlns="http://www.w3.org/2000/svg"
   xmlns:svg="http://www.w3.org/2000/svg"><defs
     id="defs1" /><g
     id="layer1"
     transform="translate(-79.999994)"><g
       id="layer1-5"
       transform="translate(0.08952283,84.559684)"><path
         id="path4"
         style="fill:#288f68;fill-opacity:1;stroke-width:7.21483;stroke-dasharray:none"
         d="m 98.604856,-84.558616 c -2.30027,-0.01699 -4.61389,0.168438 -6.89634,0.566067 -5.6e-4,1.1e-5 -0.001,6.08e-4 -0.002,6.86e-4 -5.2e-4,9.2e-5 -10e-4,-9e-5 -0.002,0 0.002,-5.33e-4 0.004,-0.0019 0.004,-0.0021 -0.002,7.4e-5 -0.0103,0.0015 -0.0185,0.0028 -0.005,7.17e-4 -0.007,0.0016 -0.01,0.0021 0.007,-8.08e-4 0.0143,-0.002 0.0211,-0.0027 -0.003,6.15e-4 -0.006,0.0018 -0.0105,0.0027 v 6.89e-4 c 0.0118,-0.0021 0.0171,-0.003 0.0179,-0.0035 11.732804,-1.836894 25.791314,8.44642 30.243104,18.048808 3.93062,8.47876 -0.16004,19.207565 -10.45736,22.243756 -3.41287,1.006168 -7.46208,0.845336 -10.73106,-0.367977 -3.269624,-1.213014 -5.544394,-3.312348 -6.575734,-6.393877 -0.49916,-1.515642 -0.11556,-5.176831 0.93653,-7.351993 0.72349,-1.496613 4.65342,-6.688692 6.743424,-7.378133 -4.346244,0.263741 -9.001304,4.719718 -10.724194,7.486805 -1.76619,2.836814 -2.12428,7.12769 -0.9745,10.057149 1.6009,4.079005 3.79442,6.321929 7.98791,8.693911 2.265954,1.282194 4.859364,1.78988 7.517544,1.787618 2.65817,-0.0022 5.38227,-0.510909 7.9009,-1.253877 14.16117,-4.174957 19.60146,-18.363507 14.39911,-29.585435 -4.83758,-10.435045 -16.91727,-16.461559 -29.370274,-16.553509 z m 3.263614,19.367339 c 1.5e-4,-5.2e-5 9.1e-4,4.8e-5 0.001,0 0.005,3.55e-4 1.9e-4,0.002 0.008,0.002 l -0.001,-0.0035 0.002,-0.0014 c -0.002,1.6e-4 -2.8e-4,-1.73e-4 -0.002,0 v -6.89e-4 c -0.0263,2.7e-4 -0.0325,-7.54e-4 -0.0295,-0.0014 -0.004,0.0028 0.01,0.0038 0.0221,0.0048 z m -0.0221,-0.0048 c 0.005,-8.27e-4 0.0225,-0.0016 0.0385,-0.002 0.088,-0.02631 -0.0225,-0.0091 -0.0385,0.002 z m 0.0385,-0.002 c -0.003,8.2e-4 -5.5e-4,4.68e-4 -0.004,0.0014 l -0.003,0.0028 c 0.0394,-0.0039 0.0274,-0.0048 0.007,-0.0041 z m -2.204754,-12.412338 c -9.91995,-0.141854 -18.17722,7.919708 -19.54632,17.392638 -1.66638,11.529741 6.18706,22.150752 17.07159,25.658042 l -5.3e-4,-0.0048 c -8.63998,-2.952286 -13.44943,-16.016195 -12.15482,-24.974325 1.1415,-7.89772 8.61211,-14.513817 16.803184,-12.979652 2.71497,0.508346 5.3336,2.135895 6.96965,4.274736 1.63935,2.138764 2.11595,4.415926 1.54401,7.301097 -0.037,-0.0115 -0.17125,3.338049 -3.21932,5.958493 -1.14394,0.983402 -5.93659,3.953401 -7.232254,3.248522 l -0.0111,0.02063 c 2.972414,1.616885 7.813414,0.110875 10.244334,-1.383185 2.43099,-1.494057 4.25142,-3.832006 5.02593,-6.471597 1.24235,-4.237225 0.0594,-8.432808 -2.34871,-11.580648 -2.40823,-3.147833 -6.01236,-5.3949 -10.01969,-6.144886 -1.056,-0.197774 -2.09977,-0.300343 -3.125974,-0.315016 z" /></g></g></svg>
