<?xml version="1.0" encoding="UTF-8" standalone="no"?>
<!-- Created with Inkscape (http://www.inkscape.org/) -->

<svg
   width="210mm"
   height="28.768955mm"
   viewBox="0 0 210 28.768955"
   version="1.1"
   id="svg1"
   xml:space="preserve"
   xmlns="http://www.w3.org/2000/svg"
   xmlns:svg="http://www.w3.org/2000/svg"><defs
     id="defs1" /><g
     id="layer1"><g
       id="layer1-5"
       transform="translate(0.08952283,84.559684)"><g
         id="g11"
         transform="matrix(1.8546322,0,0,1.5189522,-2.8158342,-86.488753)"><g
           id="logogram"
           transform="translate(0,10.5)" /><g
           id="logotype"
           transform="translate(0,1)"><path
             fill="#288f68"
             d="m 11.55,16.27 q 3.33,0 5.36,-2.24 v 0 l 1.82,2.17 q -1.23,1.47 -3.1,2.24 -1.87,0.77 -4.18,0.77 v 0 Q 8.51,19.21 6.23,18 3.96,16.8 2.71,14.63 1.47,12.45 1.47,9.72 v 0 Q 1.47,7.03 2.68,4.86 3.89,2.69 6,1.48 8.12,0.27 10.78,0.27 v 0 q 2.52,0 4.59,1.14 2.06,1.14 3.29,3.2 1.22,2.07 1.26,4.76 v 0 L 5.18,12.24 q 0.7,1.93 2.36,2.98 1.67,1.05 4.01,1.05 z M 10.78,3.11 Q 9.03,3.11 7.65,3.91 6.27,4.72 5.5,6.17 4.73,7.62 4.73,9.55 v 0 0.35 L 16.59,7.66 Q 16.14,5.63 14.56,4.37 12.99,3.11 10.78,3.11 Z m 21.14,16.1 q -2.83,0 -5.06,-1.23 -2.22,-1.22 -3.48,-3.37 -1.26,-2.16 -1.26,-4.89 v 0 q 0,-2.73 1.26,-4.88 1.26,-2.15 3.48,-3.36 2.23,-1.21 5.06,-1.21 v 0 q 2.52,0 4.5,1.02 1.98,1.01 3.06,2.94 v 0 L 36.93,5.87 Q 36.05,4.54 34.76,3.88 33.46,3.21 31.89,3.21 v 0 q -1.82,0 -3.28,0.81 -1.45,0.8 -2.27,2.29 -0.82,1.49 -0.82,3.41 v 0 q 0,1.96 0.82,3.45 0.82,1.49 2.27,2.29 1.46,0.81 3.28,0.81 v 0 q 1.57,0 2.87,-0.66 1.29,-0.67 2.17,-2 v 0 l 2.55,1.61 q -1.08,1.92 -3.06,2.96 -1.98,1.03 -4.5,1.03 z m 19.22,-2.94 q 3.32,0 5.35,-2.24 v 0 l 1.82,2.17 q -1.22,1.47 -3.1,2.24 -1.87,0.77 -4.18,0.77 v 0 Q 48.09,19.21 45.81,18 43.54,16.8 42.3,14.63 41.05,12.45 41.05,9.72 v 0 q 0,-2.69 1.21,-4.86 1.21,-2.17 3.33,-3.38 2.11,-1.21 4.78,-1.21 v 0 q 2.52,0 4.58,1.14 2.07,1.14 3.29,3.2 1.23,2.07 1.26,4.76 v 0 l -14.73,2.87 q 0.7,1.93 2.36,2.98 1.66,1.05 4.01,1.05 z M 50.37,3.11 q -1.75,0 -3.14,0.8 -1.38,0.81 -2.15,2.26 -0.77,1.45 -0.77,3.38 v 0 0.35 L 56.17,7.66 Q 55.72,5.63 54.15,4.37 52.57,3.11 50.37,3.11 Z M 88.34,0.45 h 3.36 v 10.26 q 0,4.09 -2.03,6.29 -2.03,2.21 -5.88,2.21 v 0 q -4.55,0 -6.3,-3.33 v 0 q -0.91,1.69 -2.47,2.51 -1.55,0.82 -3.86,0.82 v 0 q -3.89,0 -5.9,-2.21 -2.02,-2.2 -2.02,-6.29 v 0 -10.26 h 3.37 v 9.94 q 0,2.97 1.08,4.39 1.09,1.42 3.47,1.42 v 0 q 2.37,0 3.51,-1.43 1.14,-1.44 1.14,-4.38 v 0 -9.94 h 3.36 v 9.94 q 0,2.94 1.14,4.38 1.13,1.43 3.52,1.43 v 0 q 2.34,0 3.42,-1.42 1.09,-1.42 1.09,-4.39 v 0 z m 16.73,18.76 q -2.76,0 -4.97,-1.23 -2.2,-1.22 -3.45,-3.37 -1.24,-2.16 -1.24,-4.89 v 0 q 0,-2.73 1.24,-4.88 1.25,-2.15 3.45,-3.36 2.21,-1.21 4.97,-1.21 v 0 q 2.77,0 4.95,1.21 2.19,1.21 3.43,3.36 1.25,2.15 1.25,4.88 v 0 q 0,2.73 -1.25,4.89 -1.24,2.15 -3.43,3.37 -2.18,1.23 -4.95,1.23 z m 0,-2.94 q 1.79,0 3.2,-0.82 1.42,-0.82 2.23,-2.31 0.8,-1.49 0.8,-3.42 v 0 q 0,-1.92 -0.8,-3.41 -0.81,-1.49 -2.23,-2.29 -1.41,-0.81 -3.2,-0.81 v 0 q -1.78,0 -3.2,0.81 -1.42,0.8 -2.24,2.29 -0.82,1.49 -0.82,3.41 v 0 q 0,1.93 0.82,3.42 0.82,1.49 2.24,2.31 1.42,0.82 3.2,0.82 z"
             id="path1" /></g></g></g></g></svg>
